# xmcd
# 
# Track frame offsets:
#     150
#     66702
#     141235
#     202041
# 
# Disc length: 3647
# 
# Revision: 0
# Processed by: cddbd v1.5.2PL0 Copyright (c) Steve Scherf et al.
# Submitted via: fre:ac v1.0.17
# 
DISCID=430e3d04
DTITLE=La Tremenda Corte - La Tremenda Corte
DYEAR=0
DGENRE=
TTITLE0=Chequecidio
TTITLE1=Lavandericidio
TTITLE2=Señoricidio
TTITLE3=Discipulicidio
EXTD=
EXTT0=
EXTT1=
EXTT2=
EXTT3=
PLAYORDER=
